<svg width="120" height="26" viewBox="0 0 120 26" fill="none" xmlns="http://www.w3.org/2000/svg">
<rect x="0.5" y="1.17188" width="23" height="24.2404" rx="11.5" stroke="white"/>
<path d="M12.5393 18.8134V13.7763H14.147L14.3877 11.8132H12.5393V10.5599C12.5393 9.99156 12.6894 9.60421 13.4644 9.60421L14.4528 9.60373V7.84802C14.2818 7.82418 13.6951 7.77075 13.0125 7.77075C11.5875 7.77075 10.6118 8.68554 10.6118 10.3656V11.8133H9V13.7763H10.6118V18.8134L12.5393 18.8134Z" fill="white"/>
<rect x="32.5" y="1.17188" width="23" height="24.2404" rx="11.5" stroke="white"/>
<path d="M48.3604 10.922C48.3604 11.0287 48.3604 11.1354 48.3604 11.2268C48.3604 14.3819 46.1501 18.0247 42.1213 18.0247C40.8763 18.0247 39.7292 17.6284 38.75 16.9577C38.9179 16.973 39.0997 16.9882 39.2676 16.9882C40.2888 16.9882 41.24 16.6072 41.9954 15.967C41.0302 15.9518 40.2188 15.2506 39.953 14.3057C40.0929 14.3361 40.2188 14.3514 40.3727 14.3514C40.5686 14.3514 40.7644 14.3209 40.9463 14.2599C39.9391 14.0465 39.1837 13.0863 39.1837 11.9279C39.1837 11.9127 39.1837 11.9127 39.1837 11.8975C39.4774 12.0804 39.8132 12.1871 40.1769 12.2023C39.5893 11.7755 39.1976 11.0439 39.1976 10.2056C39.1976 9.76361 39.3096 9.35208 39.4914 9.00152C40.5686 10.4495 42.1913 11.3945 44.0098 11.5012C43.9678 11.3335 43.9539 11.1354 43.9539 10.9525C43.9539 9.62643 44.9331 8.55951 46.1501 8.55951C46.7796 8.55951 47.3532 8.8491 47.7448 9.30636C48.2484 9.19966 48.7101 9.00152 49.1437 8.72717C48.9759 9.29111 48.6261 9.74837 48.1785 10.0532C48.6261 9.99224 49.0458 9.8703 49.4375 9.67216C49.1577 10.1599 48.794 10.5867 48.3604 10.922Z" fill="white"/>
<rect x="64.5" y="1.17188" width="23" height="24.2404" rx="11.5" stroke="white"/>
<path d="M80.7619 18.0211C80.1868 18.0067 79.6254 18.0067 79.0503 18.0211C78.9271 18.0211 78.8997 17.9923 78.8997 17.8627C78.8997 16.797 78.8997 15.717 78.8997 14.6514C78.8997 14.4066 78.886 14.1617 78.8175 13.9313C78.6121 13.1825 77.7906 12.9089 77.2018 13.4129C76.8868 13.6721 76.7636 14.0321 76.7636 14.4642C76.7636 15.4722 76.7636 16.4802 76.7636 17.4883C76.7636 17.6179 76.7499 17.7475 76.7636 17.8915C76.7773 18.0067 76.7225 18.0355 76.6267 18.0211C76.0379 18.0211 75.4628 18.0211 74.874 18.0211C74.7644 18.0211 74.7371 17.9923 74.7371 17.8771C74.7508 16.9698 74.7508 16.0626 74.7508 15.141C74.7508 14.0177 74.7508 12.8945 74.7371 11.7857C74.7371 11.6561 74.7644 11.6273 74.874 11.6273C75.4628 11.6273 76.0379 11.6273 76.6267 11.6273C76.7362 11.6273 76.7636 11.6561 76.7636 11.7713C76.7636 12.0017 76.7636 12.2321 76.7636 12.5057C76.8047 12.4625 76.8184 12.4481 76.8321 12.4337C77.3661 11.6129 78.1192 11.3824 79.0092 11.5264C80.0362 11.6993 80.6935 12.4481 80.8578 13.6001C80.8989 13.8737 80.9125 14.1473 80.9125 14.421C80.9125 15.573 80.9125 16.7106 80.9125 17.8627C80.9125 17.9779 80.8852 18.0211 80.7619 18.0211Z" fill="white"/>
<path d="M73.6413 14.8244C73.6413 15.8325 73.6413 16.8405 73.6413 17.8485C73.6413 17.9782 73.6139 18.0214 73.4906 18.0214C72.9155 18.007 72.3404 18.0214 71.7653 18.0214C71.6558 18.0214 71.6284 17.9926 71.6284 17.8773C71.6284 15.8469 71.6284 13.802 71.6284 11.7715C71.6284 11.6707 71.6558 11.6275 71.7653 11.6275C72.3541 11.6275 72.9429 11.6275 73.5317 11.6275C73.655 11.6275 73.6687 11.6707 73.6687 11.7859C73.6413 12.7939 73.6413 13.802 73.6413 14.8244Z" fill="white"/>
<path d="M73.7385 9.95694C73.6016 10.533 73.0401 10.8642 72.3966 10.749C71.7119 10.6338 71.3285 9.92813 71.575 9.23691C71.7393 8.80489 72.1364 8.54568 72.6431 8.56008C73.4099 8.54568 73.9165 9.19371 73.7385 9.95694Z" fill="white"/>
<rect x="96.5" y="1.17188" width="23" height="24.2404" rx="11.5" stroke="white"/>
<path fill-rule="evenodd" clip-rule="evenodd" d="M102.75 9.77075C102.75 8.66618 103.645 7.77075 104.75 7.77075H111.25C112.355 7.77075 113.25 8.66618 113.25 9.77075V16.8134C113.25 17.918 112.355 18.8134 111.25 18.8134H104.75C103.645 18.8134 102.75 17.918 102.75 16.8134V9.77075ZM108 11.3155C107.006 11.3155 106.15 12.1716 106.15 13.2921C106.15 14.4126 107.006 15.2687 108 15.2687C108.994 15.2687 109.85 14.4126 109.85 13.2921C109.85 12.1716 108.994 11.3155 108 11.3155ZM104.95 13.2921C104.95 11.5665 106.287 10.1155 108 10.1155C109.713 10.1155 111.05 11.5665 111.05 13.2921C111.05 15.0176 109.713 16.4687 108 16.4687C106.287 16.4687 104.95 15.0176 104.95 13.2921ZM111.15 10.7155C111.537 10.7155 111.85 10.3859 111.85 9.97929C111.85 9.57271 111.537 9.24311 111.15 9.24311C110.763 9.24311 110.45 9.57271 110.45 9.97929C110.45 10.3859 110.763 10.7155 111.15 10.7155Z" fill="white"/>
</svg>
