<svg width="12" height="11" viewBox="0 0 12 11" fill="none" xmlns="http://www.w3.org/2000/svg">
<path d="M10.3604 2.92198C10.3604 3.02868 10.3604 3.13537 10.3604 3.22682C10.3604 6.38187 8.15011 10.0247 4.12132 10.0247C2.87631 10.0247 1.72922 9.62837 0.75 8.95773C0.917866 8.97297 1.09972 8.98821 1.26759 8.98821C2.28878 8.98821 3.24002 8.60717 3.99542 7.96701C3.03019 7.95177 2.21883 7.25065 1.95304 6.30566C2.09293 6.33614 2.21883 6.35138 2.37271 6.35138C2.56855 6.35138 2.7644 6.3209 2.94625 6.25993C1.93905 6.04655 1.18366 5.08632 1.18366 3.92794C1.18366 3.9127 1.18366 3.9127 1.18366 3.89746C1.47742 4.08036 1.81315 4.18705 2.17687 4.20229C1.58933 3.77552 1.19764 3.04392 1.19764 2.20562C1.19764 1.76361 1.30955 1.35208 1.49141 1.00152C2.56855 2.44949 4.19126 3.39448 6.00982 3.50117C5.96785 3.33351 5.95386 3.13537 5.95386 2.95247C5.95386 1.62643 6.93308 0.559509 8.15011 0.559509C8.77961 0.559509 9.35316 0.849103 9.74485 1.30636C10.2484 1.19966 10.7101 1.00152 11.1437 0.727169C10.9759 1.29111 10.6261 1.74837 10.1785 2.0532C10.6261 1.99224 11.0458 1.8703 11.4375 1.67216C11.1577 2.1599 10.794 2.58667 10.3604 2.92198Z" fill="white"/>
</svg>
